<svg xmlns="http://www.w3.org/2000/svg" viewBox="0 0 252.54 333.31"><defs><style>.a{fill:#66595a;}.b{fill:#ffd229;}.c{fill:#fff;}</style></defs><title>Krungsri logo - Brandlogos.net</title><rect class="a" width="252.54" height="333.31"/><path class="b" d="M490.75,483.29h0l0,0a56.81,56.81,0,0,1-13-22.65s-.14-.41-.34-.41-.36.46-.36.46v0c-7.26,23.57-24.81,32.89-30.84,34.94a.44.44,0,0,0-.3.53,71.09,71.09,0,0,0,13.44,22.38.55.55,0,0,0,.64,0c18.81-10.72,29.5-31.66,30.93-34.58a.54.54,0,0,0-.07-.63" transform="translate(-385.73 -345.34)"/><path class="b" d="M533.4,483.29h0c.05,0,.06,0,.06,0a56.58,56.58,0,0,0,13-22.65s.15-.41.35-.41.36.46.36.46v0c7.27,23.57,24.81,32.89,30.84,34.94a.42.42,0,0,1,.29.53,70.15,70.15,0,0,1-13.43,22.38.52.52,0,0,1-.62,0c-18.83-10.72-29.54-31.66-30.95-34.58a.6.6,0,0,1,0-.63" transform="translate(-385.73 -345.34)"/><path class="b" d="M546.14,533.11h0C519.52,507.21,512.54,461,512.54,461s-.11-.8-.45-.8-.46.8-.46.8-7,46.21-33.58,72.11c0,0-.27.25,0,.42a70.42,70.42,0,0,0,33.56,8.73h.92a70.4,70.4,0,0,0,33.57-8.74.25.25,0,0,0,0-.41" transform="translate(-385.73 -345.34)"/><path class="b" d="M548.95,411.29c-.4-.21-.41.33-.41.33,0,8.34,1.15,54.34,33.31,68.37.3.14.39-.1.4-.16a72.88,72.88,0,0,0,.51-8.24,70.6,70.6,0,0,0-33.8-60.31" transform="translate(-385.73 -345.34)"/><path class="b" d="M475.24,411.29c.4-.21.4.33.4.33,0,8.34-1.15,54.34-33.31,68.37a.25.25,0,0,1-.39-.16,71.75,71.75,0,0,1-.5-8.24,70.6,70.6,0,0,1,33.81-60.31" transform="translate(-385.73 -345.34)"/><path class="b" d="M544.71,408.88a70.53,70.53,0,0,0-30.54-7.94c-.3,0-.26.37-.26.37,0,14,2.26,46.85,13.21,69,.09.25.28.15.38.11l.05-.05c1.08-1.16,18.08-19.82,17.41-61a.64.64,0,0,0-.25-.48" transform="translate(-385.73 -345.34)"/><path class="b" d="M479.46,408.88A70.53,70.53,0,0,1,510,400.94c.29,0,.27.37.27.37,0,14-2.26,46.85-13.23,69a.21.21,0,0,1-.35.11s0,0-.07-.05c-1.09-1.16-18.07-19.82-17.4-61a.6.6,0,0,1,.24-.48" transform="translate(-385.73 -345.34)"/><path class="c" d="M450.32,573h5.19s.87.22.87.92v2.53h.12c1.43-2.87,4.21-4.06,7.71-4.06v6.13a11.29,11.29,0,0,0-1.19.08c-3.63.36-6.63,2.4-6.63,7.31v10.25s.12,1.88-1.63,1.88h-4.42Z" transform="translate(-385.73 -345.34)"/><path class="c" d="M576.87,573H582s.88.22.88.92v2.53H583c1.43-2.87,4.24-4.06,7.71-4.06v6.13a11.46,11.46,0,0,0-1.18.08c-3.62.36-6.62,2.4-6.62,7.31v10.25S583,598,581.26,598h-4.4Z" transform="translate(-385.73 -345.34)"/><path class="c" d="M490.25,574.17V597s0,1-.91,1H484.2v-2.48h-.11a8.72,8.72,0,0,1-7.17,3.08c-4.26,0-9.15-1.76-9.15-9V573h5.15a1.12,1.12,0,0,1,.88,1.18v13.67c0,3.45,1.38,5,4.46,5,4.56,0,5.94-3.33,5.94-6.35V573h5.05a1.17,1.17,0,0,1,1,1.18" transform="translate(-385.73 -345.34)"/><path class="c" d="M496.18,573h5s1.05.14,1.05,1.11v1.36h.11a8.69,8.69,0,0,1,6.83-3.08c5.93,0,8.6,3,8.6,8.52v16.17a.86.86,0,0,1-.87,1h-5.16V582.73c0-2.29-1-4.52-4.17-4.52-2.92,0-5.35,2-5.35,6.6V597s0,1-.91,1h-5.13Z" transform="translate(-385.73 -345.34)"/><path class="c" d="M546.19,574.11V597.5c0,6.5-5.35,9.72-12.06,9.72-7.93,0-11.16-5.53-11.16-8.66h6.35c.44,1.74,2.12,3.13,5.13,3.13,3.91,0,5.71-2,5.71-5.06v-2.69a10,10,0,0,1-7.15,2.8c-6.24,0-10.88-4.64-10.88-12.18s4.64-12.18,10.88-12.18c3.62,0,5.56,1.23,7,3h.11V573h5a1,1,0,0,1,1,1.13m-11.8,3.83c-4.54,0-5.88,4-5.93,6.62s1.39,6.62,5.93,6.62,5.9-3.95,5.94-6.62-1.37-6.62-5.94-6.62" transform="translate(-385.73 -345.34)"/><path class="c" d="M571.72,577.65l-2.85,2.69-.59.55a7.27,7.27,0,0,0-.43-.72,6.7,6.7,0,0,0-5.89-2.83c-2.82-.07-4.58.92-4.58,2.4,0,4.38,15.78.66,15.78,10.12,0,6-5.4,8.75-11.14,8.75-5.45,0-9.33-1.69-11.61-4-.49-.52.1-1,.1-1l3.93-3c1.38,2,4,3.12,7.22,3.12,2.88,0,4.87-1.57,4.87-2.92,0-4.27-15.51-.74-15.51-10.26,0-5.64,4.91-8.11,11.1-8.11a13.11,13.11,0,0,1,9.62,3.72,1,1,0,0,1,0,1.54" transform="translate(-385.73 -345.34)"/><path class="c" d="M600.36,563.62c0-.77-1-.85-1-.85h-5V568s-.12.86.89.86h5.17ZM594.3,573h5.13a1,1,0,0,1,.91,1v23a.86.86,0,0,1-.94,1h-5.1Z" transform="translate(-385.73 -345.34)"/><path class="c" d="M447.13,573h-6.48a3.76,3.76,0,0,0-2.24.89l-8.61,8.51V568.83a2.64,2.64,0,0,0-.92-1.85l-5.13-4.21V598h5c1.14,0,1-1.32,1-1.32V590a.55.55,0,0,1,.54-.54c.42,0,1,.58,1,.58l7,6.93a4.72,4.72,0,0,0,2.66,1h6.19L434.5,585.48Z" transform="translate(-385.73 -345.34)"/><path class="c" d="M447.45,619.78a8,8,0,0,0-2.23.88,5.26,5.26,0,0,0-1.63,1.52,4.09,4.09,0,0,0-.65,2.34,5.74,5.74,0,0,0,.52,2.36,6.23,6.23,0,0,0,1.63,1.8,10.67,10.67,0,0,0,2,1.22c.71.34,1.38.67,2,1a8.53,8.53,0,0,1,1.53,1.21,2.45,2.45,0,0,1,.62,1.73,1.73,1.73,0,0,1-.79,1.35,6,6,0,0,1-4.68.11c-.51-.18-2.65-1.25-2.65-1.25v3.26a9.71,9.71,0,0,0,1.77.76,10.75,10.75,0,0,0,3.43.59,6.36,6.36,0,0,0,4.72-1.57,5.37,5.37,0,0,0,1.52-3.9,3.92,3.92,0,0,0-.43-1.87,6.13,6.13,0,0,0-1.09-1.46,7.42,7.42,0,0,0-1.5-1.18c-.56-.31-1.09-.63-1.62-.92l-1.37-.69a6.15,6.15,0,0,1-1.15-.68,2.6,2.6,0,0,1-.83-.88,2.12,2.12,0,0,1-.32-1.21,2,2,0,0,1,.32-1.15,2,2,0,0,1,.78-.69,5.31,5.31,0,0,1,1.37-.34,9.11,9.11,0,0,1,5,1v-2.72a12.26,12.26,0,0,0-6.31-.65" transform="translate(-385.73 -345.34)"/><path class="c" d="M495.83,619.78a7.9,7.9,0,0,0-2.25.88,5.25,5.25,0,0,0-1.64,1.52,4.2,4.2,0,0,0-.64,2.34,5.74,5.74,0,0,0,.52,2.36,6.36,6.36,0,0,0,1.64,1.8,11.64,11.64,0,0,0,2,1.22c.72.34,1.4.67,2,1a7.86,7.86,0,0,1,1.55,1.21,2.45,2.45,0,0,1,.62,1.73,1.71,1.71,0,0,1-.78,1.35,6,6,0,0,1-4.69.11c-.53-.18-2.65-1.25-2.65-1.25v3.26a9.55,9.55,0,0,0,1.75.76,10.89,10.89,0,0,0,3.44.59,6.35,6.35,0,0,0,4.71-1.57,5.25,5.25,0,0,0,1.53-3.9,4.29,4.29,0,0,0-.41-1.87,6.24,6.24,0,0,0-1.12-1.46,7.71,7.71,0,0,0-1.5-1.18c-.53-.31-1.08-.63-1.63-.92s-.92-.48-1.35-.69a7.21,7.21,0,0,1-1.16-.68,2.72,2.72,0,0,1-.82-.88,2.08,2.08,0,0,1-.31-1.21,1.91,1.91,0,0,1,.31-1.15,2,2,0,0,1,.79-.69,5.18,5.18,0,0,1,1.39-.34,9,9,0,0,1,4.94,1v-2.72a12.17,12.17,0,0,0-6.28-.65" transform="translate(-385.73 -345.34)"/><path class="c" d="M453,640.52a.73.73,0,0,1,.74.79V645a1.25,1.25,0,0,1-.7,1l-2.11,1.14v-6.66Z" transform="translate(-385.73 -345.34)"/><path class="c" d="M466.36,620.38c.64,0,.9.36.9,1.06v15.77a1,1,0,0,1-.83,1h-4.06L457.49,626h2.6a1.09,1.09,0,0,1,1.09.67l2.76,7.19V620.38Z" transform="translate(-385.73 -345.34)"/><path class="c" d="M502.31,614.92c0,.83-.17,1.16-1,1.16H490.8v0l1.57-2a1.64,1.64,0,0,1,1.45-.61h5.69v-2.06a1.27,1.27,0,0,1,.56-1.15l2.24-1.19Z" transform="translate(-385.73 -345.34)"/><path class="c" d="M487.23,619.13h-2.48a1.64,1.64,0,0,0-1.26.61l-.39.5a9.09,9.09,0,0,0-3.71-.69q-3.69,0-5.52,1.92a7.66,7.66,0,0,0-1.83,5.47v11.27h2.23v0h.27a.73.73,0,0,0,.81-.77V630.4h2.9c.64,0,.81-.15,1-.43,0,0,1.37-2.23,1.37-2.23h-5.28c0-.8,0-1.55.08-2.2a4.81,4.81,0,0,1,.5-1.78,2.81,2.81,0,0,1,1.2-1.15,4.86,4.86,0,0,1,2.27-.43,5.06,5.06,0,0,1,2.18.39,2.5,2.5,0,0,1,1.22,1.07,4.14,4.14,0,0,1,.52,1.61,16.55,16.55,0,0,1,.13,2.05v10.9h2.48a.69.69,0,0,0,.77-.75V626.94a7.91,7.91,0,0,0-1.51-5.11l2-2.65Z" transform="translate(-385.73 -345.34)"/><path class="c" d="M436.46,621.47a7.17,7.17,0,0,0-5.46-1.92c-2.47,0-4.32.63-5.53,1.92a7.47,7.47,0,0,0-1.84,5.47v11.27h2.47a.7.7,0,0,0,.8-.75v-9.72c0-.8,0-1.55.09-2.2a5,5,0,0,1,.52-1.78,2.75,2.75,0,0,1,1.2-1.15,4.86,4.86,0,0,1,2.3-.43,5.06,5.06,0,0,1,2.16.39,2.49,2.49,0,0,1,1.19,1.07,3.74,3.74,0,0,1,.54,1.61,17.76,17.76,0,0,1,.12,2.05v10.89h2.48a.7.7,0,0,0,.8-.75V626.94a7.53,7.53,0,0,0-1.84-5.47" transform="translate(-385.73 -345.34)"/></svg>